<?xml version="1.0" encoding="UTF-8" standalone="no"?>
<!DOCTYPE svg PUBLIC "-//W3C//DTD SVG 1.1//EN" "http://www.w3.org/Graphics/SVG/1.1/DTD/svg11.dtd">
<svg width="100%" height="100%" viewBox="0 0 829 818" version="1.1" xmlns="http://www.w3.org/2000/svg" xmlns:xlink="http://www.w3.org/1999/xlink" xml:space="preserve" xmlns:serif="http://www.serif.com/" style="fill-rule:evenodd;clip-rule:evenodd;stroke-linecap:round;stroke-linejoin:round;stroke-miterlimit:1.5;">
    <g transform="matrix(1,0,0,1,-184.943,-248.98)">
        <g>
            <g transform="matrix(1,0,0,1,56.1169,-40.6346)">
                <circle cx="548.33" cy="698.308" r="408.194" style="fill:rgb(133,165,157);stroke:rgb(133,165,157);stroke-width:1px;"/>
            </g>
            <g transform="matrix(1,0,0,1,-2.93631,39.5067)">
                <g id="face">
                    <path d="M597.759,448.781L617.406,543.987C617.406,543.987 627.156,571.16 632.382,570.372C632.382,570.372 641.577,574.844 644.921,574.025C648.537,573.139 647.73,573.773 671.96,562.993L679.432,562.011L680.914,577.272L699.578,586.008L709.686,615.793L719.211,587.687L757.742,572.244L758.273,560.366C758.273,560.366 731.472,571.376 728.574,569.586C728.574,569.586 733.476,536.021 713.427,465.984C713.427,465.984 649.777,464.085 614.971,407.268C614.971,407.268 616.953,427.066 597.759,448.781Z" style="fill:rgb(247,217,192);stroke:rgb(247,217,192);stroke-width:1px;"/>
                </g>
                <g transform="matrix(1,0,0,1,0,0.298871)">
                    <g id="hair">
                        <path d="M630.036,568.277L617.509,577.6C617.509,577.6 607.315,579.512 592.01,534.284L590.689,500.651L591.258,423.106C591.258,423.106 594.965,389.016 596.93,387.113C596.93,387.113 606.002,364.812 627.488,349.77C648.974,334.729 629.235,349.092 629.235,349.092C629.235,349.092 624.409,344.328 689.748,323.829L723.836,324.046C723.836,324.046 752.852,335.716 769.566,357.095C769.566,357.095 786.302,372.484 791.691,407.364C797.08,442.243 792.297,444.069 792.807,444.913C792.807,444.913 801.164,446.236 811.907,491.363C811.907,491.363 816.247,510.914 805.001,525.731C793.754,540.549 758.424,560.713 753.398,560.438L729.223,568.762L720.645,495.502C720.645,495.502 715.305,466.04 713.292,467.669C713.292,467.669 649.166,474.054 615.109,406.415C615.109,406.415 617.929,421.922 598.896,445.508C598.896,445.508 618.541,572.897 630.036,568.277Z" style="fill:rgb(178,124,99);stroke:rgb(178,124,99);stroke-width:1px;"/>
                    </g>
                </g>
                <g id="shirt">
                    <path d="M672.826,574.71L700.282,586.116L708.962,616.06L717.535,587.404L769.348,568.076L780.705,587.447C780.705,587.447 792.328,603.97 877.263,626.786C877.263,626.786 919.395,638.058 938.849,674.885L964.592,752.602L861.892,804.183L858.358,898.5L588.206,900.702L580.659,790.088L514.033,749.838L568.578,652.594C568.578,652.594 573.838,644.524 600.434,630.619L660.811,607.117L672.826,574.71Z" style="fill:rgb(224,122,95);stroke:rgb(224,122,95);stroke-width:1px;"/>
                </g>
                <g id="arm-right">
                    <path d="M860.068,802.327L941.108,766.39L924.374,897.642L751.415,898.015L675.911,857.95C675.911,857.95 660.532,874.54 656.359,873.179C656.359,873.179 630.735,884.129 600.433,881.217L584.767,890.505L550.038,890.019C550.038,890.019 557.123,871.8 586.026,850.059C586.026,850.059 587.907,846.115 632.281,829.227C632.281,829.227 643.778,823.668 682.5,825.36L762.562,838.345L843.657,851.541L856.587,852.499L860.068,802.327Z" style="fill:rgb(247,217,192);stroke:rgb(247,217,192);stroke-width:1px;"/>
                </g>
                <g id="arm-left">
                    <path d="M529.365,760.249L578.909,790.099C578.909,790.099 581.674,814.663 580.531,817.763C579.387,820.863 572.683,860.555 572.683,860.555L547.763,892.261L513.88,837.582L529.365,760.249Z" style="fill:rgb(247,217,192);stroke:rgb(247,217,192);stroke-width:1px;"/>
                </g>
                <g id="Layer1" transform="matrix(1,0,0,1,15.0798,0)">
                    <path d="M275.315,902.626L173.3,720.937L441.413,719.735L550.943,898.825L275.315,902.626Z" style="fill:rgb(247,217,192);stroke:rgb(178,124,99);stroke-width:1px;"/>
                    <g transform="matrix(0.882035,-0.0612599,0.0603964,0.869601,-11.0692,111.729)">
                        <circle cx="359.317" cy="822.742" r="32.58" style="fill:rgb(178,124,99);stroke:rgb(178,124,99);stroke-width:1.14px;"/>
                    </g>
                </g>
            </g>
        </g>
    </g>
</svg>
