<?xml version="1.0" encoding="UTF-8" standalone="no"?>
<!DOCTYPE svg PUBLIC "-//W3C//DTD SVG 1.1//EN" "http://www.w3.org/Graphics/SVG/1.1/DTD/svg11.dtd">
<svg width="100%" height="100%" viewBox="0 0 529 494" version="1.1" xmlns="http://www.w3.org/2000/svg" xmlns:xlink="http://www.w3.org/1999/xlink" xml:space="preserve" xmlns:serif="http://www.serif.com/" style="fill-rule:evenodd;clip-rule:evenodd;stroke-linecap:round;stroke-linejoin:round;stroke-miterlimit:1.5;">
    <g transform="matrix(1,0,0,1,-124.561,-108.209)">
        <g>
            <g transform="matrix(0.941276,0,0,1.07916,-13.3204,-49.8793)">
                <path d="M669.407,600.969C693.965,562.06 706.894,517.924 706.894,472.995C706.894,331.733 581.517,217.047 427.087,217.047C272.657,217.047 147.28,331.733 147.28,472.995C147.28,517.924 160.209,562.06 184.767,600.969L669.407,600.969Z" style="fill:rgb(132,165,157);stroke:rgb(132,165,157);stroke-width:1.48px;"/>
            </g>
            <g id="me" transform="matrix(1,0,0,1,-9.97038,67.6558)">
                <g id="shadow">
                    <path d="M429.196,179.522L436.141,187.15C436.141,187.15 433.863,195.4 425.21,195.734L423.307,202.517C423.307,202.517 420.682,213.418 420.682,213.447C420.682,213.476 418.694,225.019 418.694,225.019L417.99,237.936C417.99,237.936 416.716,238.902 421.296,245.616C425.875,252.33 427.5,250.922 427.242,251.115C426.983,251.308 433.295,253.825 433.854,254.019L430.857,271.14L421.49,287.733L408.848,298.222L395.713,305.177L380.719,309.238L370.204,310.538L372.811,304.058L374.092,294.707L372.476,279.606L368.433,274.027L362.629,267.069L358.154,261.22L352.621,254.022L345.611,243.01L339.668,231.725L337.399,224.145L335.65,213.755L333.089,198.508L330.635,190.756L327.444,186.302L325.265,185.586L323.674,185.22C324.81,184.753 328.701,185.561 329.43,186.471C331.662,189.898 332.345,191.641 332.649,192.973L334.447,202.329L336.451,212.597L339.896,226.354L344.369,236.889L350.534,247.069L353.617,252.297L354.244,252.838L360.313,252.951L367.712,249.815L376.274,244.579L386.806,238.914L397.755,232.734L406.764,226.541L410.577,220.69L416.379,210.944L420.337,204.503L424.395,195.27L427.493,186.989L429.196,179.522Z" style="fill:rgb(235,181,151);stroke:rgb(235,181,151);stroke-width:0.35px;"/>
                </g>
                <g id="tshirt">
                    <path d="M434.056,254.219C437.557,252.547 440.448,249.797 443.4,247.28C446.621,244.534 450.584,240.641 453.383,237.741C455.791,235.246 457.713,232.3 460.194,229.878C462.773,227.36 465.84,224.096 468.858,222.635C471.727,221.246 475.113,220.99 478.298,221.112C481.957,221.252 486.865,221.911 490.811,223.474C495.343,225.269 501.423,228.822 505.487,231.883C509.189,234.673 512.701,238.194 515.191,241.844C517.64,245.434 518.736,249.781 520.428,253.784C522.636,259.005 526.32,268.021 528.436,273.172C530.011,277.006 531.474,280.886 533.122,284.689C535.312,289.741 538.9,297.53 541.575,303.486C544.11,309.131 546.552,314.818 549.172,320.425C551.867,326.191 556.551,335.146 557.743,338.085C557.921,338.524 556.792,337.986 556.324,338.059C554.9,338.282 551.498,338.674 549.198,339.421C546.457,340.311 542.907,341.907 539.877,343.4C536.806,344.912 533.701,346.616 530.775,348.494C527.484,350.606 523.505,353.415 520.133,356.07C516.801,358.694 513.642,361.536 510.541,364.427C507.405,367.352 502.996,371.914 501.315,373.616C501.002,373.933 500.72,374.28 500.457,374.639C500.168,375.031 499.542,375.444 499.586,375.973C499.634,376.55 500.369,377.387 500.745,378.102C501.494,379.526 503.015,382.355 504.078,384.517C505.52,387.454 507.71,391.948 509.399,395.723C511.194,399.734 513.079,404.28 514.849,408.588C516.773,413.272 518.954,418.728 520.943,423.823C523.304,429.872 526.378,437.843 529.019,444.882C532,452.827 536.569,465.443 538.827,471.49C540.037,474.73 545.987,480.65 542.568,481.165C513.507,485.546 394.372,494.973 364.459,497.773C363.999,497.816 363.293,498.379 363.088,497.966C362.825,497.439 362.935,495.731 362.885,494.612C362.671,489.789 362.881,475.116 361.801,469.027C361.089,465.021 358.576,461.519 356.401,458.08C354.049,454.362 350.655,450.109 347.688,446.72C344.885,443.516 340.387,440.914 338.603,437.744C336.939,434.788 337.106,431.045 336.983,427.699C336.861,424.352 340.695,419.476 337.868,417.663C330.097,412.681 298.482,401.355 290.361,397.807C289.786,397.555 289.517,396.874 289.141,396.371C288.152,395.048 286.361,391.721 284.427,389.871C282.435,387.966 279.767,386.313 277.191,384.941C274.574,383.547 270.126,382.237 268.725,381.508C268.447,381.363 268.77,380.882 268.791,380.568C268.824,380.072 268.854,379.208 268.925,378.532C269.221,375.71 270.135,368.614 270.564,363.638C271.049,358.02 271.518,349.99 271.832,344.829C272.079,340.779 272.297,336.678 272.45,332.673C272.601,328.716 272.461,324.261 272.75,320.796C273.001,317.798 273.308,314.757 274.184,311.884C275.06,309.012 276.14,305.979 278.005,303.562C280.015,300.958 283.032,298.037 286.242,296.259C289.615,294.391 295.225,292.948 298.238,292.356C300.231,291.964 302.759,292.433 304.322,292.707C305.484,292.911 306.491,293.646 307.616,294C309.012,294.44 311.229,295.173 312.698,295.348C313.939,295.496 316.577,296.235 316.434,295.05C316.291,293.865 313.162,290.637 311.84,288.239C309.34,283.703 302.917,273.288 301.434,267.838C300.349,263.854 300.368,252.312 302.939,255.543C306.177,259.613 315.547,284.999 320.864,292.258C323.928,296.442 329.923,300.747 334.839,299.095C353.704,292.755 415.962,262.854 434.056,254.219Z" style="fill:rgb(246,189,96);stroke:rgb(246,189,96);stroke-width:0.35px;"/>
                </g>
                <g transform="matrix(1,0,0,1.00355,0,-0.145729)">
                    <g id="hair">
                        <path d="M341.677,81.349C345.173,80.953 348.978,84.875 352.867,85.935C356.975,87.055 361.798,87.733 366.329,88.066C371.384,88.437 379.358,88.115 383.2,88.161C385.261,88.187 388.08,87.288 389.38,88.347C390.679,89.405 390.049,92.61 390.996,94.512C392.133,96.797 393.916,100.031 396.203,102.059C399.052,104.585 405.047,107.255 408.091,109.669C410.54,111.612 413.015,113.777 414.467,116.545C416.286,120.011 417.89,125.714 419.004,130.466C420.137,135.3 420.463,140.685 421.267,145.549C422.046,150.264 423.131,155.191 423.828,159.654C424.486,163.863 424.221,168.698 425.45,172.33C426.603,175.735 429.351,179.064 431.204,181.449C432.731,183.414 436.121,184.853 436.568,186.64C437.016,188.427 435.317,190.702 433.89,192.171C432.427,193.677 429.279,194.945 427.79,195.676C426.902,196.112 425.773,195.129 424.958,196.558C424.032,198.184 423.418,202.655 422.815,205.739C421.629,211.805 418.178,226.618 417.844,232.953C417.647,236.681 418.846,240.578 420.812,243.751C422.812,246.981 427.567,250.609 429.845,252.33C431.162,253.324 432.957,254.716 434.478,254.076C437.01,253.009 441.996,248.6 445.036,245.931C447.791,243.511 450.349,240.664 452.72,238.059C454.996,235.557 456.911,232.735 459.258,230.3C461.697,227.77 465.007,224.475 467.352,222.878C469.103,221.686 472.227,222.527 473.329,220.718C474.433,218.906 473.919,214.916 473.977,212.004C474.071,207.275 474.283,198.884 473.893,192.342C473.485,185.483 472.482,177.996 471.526,170.853C470.547,163.536 469.552,155.426 468.02,148.436C466.57,141.815 464.208,135.427 462.337,128.912C460.446,122.332 458.589,115.077 456.678,108.959C454.916,103.317 453.04,97.56 450.874,92.204C448.752,86.957 446.267,81.039 443.682,76.822C441.427,73.144 438.222,68.986 435.365,66.905C433.413,65.482 429.458,64.504 427.568,63.037C425.968,61.794 425.405,59.581 424.024,58.099C421.969,55.894 418.4,51.973 415.24,49.809C412.158,47.698 408.59,46.35 405.065,45.115C401.124,43.734 396.094,42.18 391.595,41.526C387.131,40.877 382.576,41.036 378.068,41.19C373.474,41.347 368.684,41.832 364.027,42.465C358.893,43.163 352.624,43.967 347.265,45.377C341.99,46.764 336.582,48.426 331.872,50.923C327.173,53.414 322.761,57.064 319.005,60.356C315.46,63.463 311.752,67.411 309.338,70.676C307.267,73.477 305.884,76.743 304.518,79.947C302.775,84.031 300.689,90.076 298.884,95.18C296.937,100.685 294.859,107.048 292.837,112.978C290.759,119.069 288.739,125.54 286.422,131.725C284.094,137.937 281.251,145.337 278.872,150.249C277.005,154.105 273.968,158.031 272.148,161.201C270.64,163.83 268.948,166.405 267.956,169.268C265.862,175.314 261.153,191.264 259.584,197.477C258.839,200.428 258.759,203.512 258.544,206.548C258.244,210.809 257.357,217.555 257.78,223.043C258.282,229.557 260.412,240.241 261.557,245.627C262.266,248.958 263.404,252.195 264.654,255.362C265.96,258.67 270.408,266.762 269.389,265.472C267.904,263.592 268.441,247.328 268.914,246.468C270.031,244.438 272.195,257.384 273.79,261.434C275.18,264.962 276.918,267.903 279.044,270.772C281.972,274.723 287.308,282.665 291.355,285.136C293.527,286.462 295.829,287.565 298.121,288.672C301.144,290.13 306.422,292.865 309.491,293.888C311.736,294.637 316.435,296.114 316.53,294.809C316.625,293.504 311.661,289.312 310.06,286.057C307.879,281.622 304.728,272.689 303.442,268.2C302.603,265.27 302.287,261.485 302.345,259.122C302.389,257.354 303.061,252.77 303.792,254.019C304.522,255.267 305.341,262.531 306.727,266.613C308.276,271.174 310.268,276.827 313.087,281.389C315.935,285.997 320.239,291.389 323.815,294.266C326.826,296.687 333.338,299.621 334.545,298.649C335.752,297.678 332.31,291.807 331.055,288.435C328.66,281.999 323.882,269.467 320.172,260.031C318.622,256.088 316.659,251.313 314.536,246.482C310.897,238.197 307.295,229.4 305.707,223.962C304.261,219.008 305.166,213.651 305.125,208.491C305.076,202.198 305.129,192.461 305.409,186.204C305.636,181.104 305.969,174.664 306.803,170.95C307.38,168.381 309.765,166.475 310.414,163.923C311.152,161.019 311.548,156.953 311.232,153.532C310.94,150.369 309.888,146.748 309.936,143.316C310.004,138.347 310.806,129.869 311.643,123.718C312.436,117.898 313.961,110.765 314.961,106.411C315.648,103.419 315.926,99.624 317.642,97.599C319.357,95.574 322.933,95.775 325.254,94.262C327.628,92.715 329.554,90.148 331.89,88.312C334.627,86.16 338.181,81.746 341.677,81.349Z" style="fill:rgb(176,125,98);stroke:rgb(176,125,98);stroke-width:1px;"/>
                    </g>
                </g>
                <g id="face">
                    <path d="M317.976,98.204C319.768,96.577 324.35,94.619 326.776,93.005C328.802,91.658 330.672,90.086 332.537,88.523C334.832,86.6 338.803,82.716 340.545,81.467C341.218,80.985 342.195,80.802 342.991,81.032C343.976,81.317 345.62,82.688 346.457,83.176C346.958,83.468 347.473,83.743 348.01,83.961C349.041,84.38 351.049,85.259 352.639,85.687C354.941,86.307 358.706,87.38 361.824,87.679C366.757,88.153 377.585,88.437 382.232,88.529C384.723,88.579 388.338,87.976 389.701,88.232C390.345,88.354 390.453,89.414 390.407,90.068C390.188,93.202 391.173,94.839 392.492,96.772C394.245,99.34 398.309,103.318 400.924,105.478C403.086,107.264 406.176,108.43 408.18,109.734C409.844,110.817 411.927,111.6 412.948,113.303C414.61,116.075 416.911,121.845 418.15,126.364C419.577,131.57 420.633,138.96 421.51,144.535C422.307,149.603 422.815,155.414 423.409,159.81C423.91,163.518 424.299,167.779 425.074,170.91C425.736,173.578 427.523,176.427 428.064,178.596C428.495,180.322 428.667,182.182 428.322,183.927C427.841,186.361 426.403,190.175 425.177,193.2C423.774,196.664 421.638,201.166 419.902,204.708C418.286,208.005 416.628,211.288 414.76,214.449C412.644,218.03 409.527,223.461 407.206,226.192C405.504,228.196 403.061,229.442 400.834,230.84C397.21,233.116 390.005,237.29 385.457,239.848C381.539,242.052 376.965,243.995 373.551,246.187C370.566,248.102 366.458,250.39 364.127,251.57C362.679,252.303 361.084,253.057 359.565,253.269C358.056,253.48 356.217,253.777 355.013,252.843C353.587,251.736 352.384,248.671 351.005,246.628C349.441,244.312 347.134,241.664 345.63,238.947C344.126,236.229 343.068,233.248 341.982,230.322C340.781,227.086 339.402,223.19 338.421,219.532C337.415,215.779 336.673,211.459 335.946,207.805C335.271,204.417 334.729,200.64 334.057,197.613C333.461,194.927 332.948,191.698 331.916,189.643C331.025,187.868 329.345,186.055 327.862,185.278C326.428,184.528 324.192,184.45 323.016,184.985C321.84,185.519 321.096,187.136 320.805,188.485C320.319,190.744 320.395,195.192 320.098,198.538C319.773,202.205 319.496,210.866 318.857,210.483C318.217,210.1 316.765,200.361 316.261,196.241C315.837,192.771 315.676,189.571 315.833,185.763C315.988,181.992 315.24,177.354 314.495,173.775C313.817,170.514 311.844,167.077 311.365,164.288C310.956,161.905 311.559,159.024 311.624,157.04C311.674,155.488 311.836,153.934 311.754,152.383C311.634,150.1 310.892,146.583 310.903,143.338C310.918,138.445 311.461,128.615 311.938,123.026C312.317,118.593 313.086,113.181 313.767,109.805C314.254,107.391 315.325,104.703 316.026,102.77C316.59,101.214 316.751,99.317 317.976,98.204Z" style="fill:rgb(249,220,196);stroke:rgb(249,220,196);stroke-width:1px;"/>
                </g>
                <g transform="matrix(0.744093,-0.0462019,0.0537742,0.866046,67.7239,48.9021)">
                    <path d="M364.9,208.104C364.9,208.104 367.221,204.278 372.852,207.131L391.053,216.871C391.053,216.871 380.319,226.547 364.088,224.723C364.088,224.723 347.156,223.729 342.036,211.012C342.036,211.012 356.047,205.427 356.666,206.272C356.666,206.272 361.578,204.418 364.9,208.104Z" style="fill:rgb(242,132,130);stroke:rgb(242,132,130);stroke-width:0.43px;"/>
                </g>
                <g id="shadow-arm">
                    <path d="M268.76,381.308C270.536,381.845 276.129,383.27 279.087,385.522C282.58,388.182 291.515,392.302 289.719,397.269C283.77,413.719 251.562,470.104 243.395,484.222C242.812,485.231 240.988,483.114 240.714,481.982C240.294,480.25 240.712,476.369 240.875,473.831C241.027,471.461 241.247,469.087 241.688,466.753C242.259,463.726 243.254,458.74 244.303,455.668C245.187,453.077 246.825,450.805 247.979,448.322C249.496,445.059 251.746,440.229 253.404,436.088C255.117,431.807 256.813,427.139 258.263,422.637C259.702,418.165 260.879,413.613 262.101,409.077C263.441,404.101 265.407,396.531 266.301,392.785C266.788,390.744 267.174,388.125 267.465,386.6C267.655,385.61 267.892,384.352 268.053,383.635C268.154,383.182 268.311,382.683 268.429,382.295C268.53,381.963 268.428,381.207 268.76,381.308Z" style="fill:rgb(235,181,151);stroke:rgb(235,181,151);stroke-width:0.35px;"/>
                </g>
                <g id="arm-left" serif:id="arm left">
                    <g id="shadow-finger">
                        <path d="M310.289,165.804C310.229,164.616 312.202,167.332 312.748,168.388C313.429,169.705 314.051,171.88 314.374,173.705C314.756,175.869 314.925,178.81 315.043,181.372C315.172,184.163 314.947,187.43 315.146,190.449C315.388,194.132 316.059,200.252 316.498,203.466C316.786,205.579 317.456,208.386 317.776,209.733C317.925,210.357 318.272,211.501 318.42,211.546C318.568,211.591 318.614,210.521 318.663,210.002C318.762,208.941 318.846,206.782 319.017,205.18C319.235,203.148 319.672,200.268 319.971,197.809C320.334,194.824 320.893,189.153 321.197,187.268C321.249,186.946 321.74,186.176 321.798,186.497C323.444,195.62 332.222,237.894 331.073,242.006C329.924,246.118 317.957,222.367 314.903,211.17C311.439,198.469 310.648,172.934 310.289,165.804Z" style="fill:rgb(235,181,151);stroke:rgb(235,181,151);stroke-width:0.35px;"/>
                    </g>
                    <path d="M323.661,224.918C323.661,224.918 321.633,214.467 322.101,214.317L321.833,213.398L321.698,204.348L321.757,195.659L321.541,186.776C321.541,186.776 322.082,185.571 322.387,185.529C322.387,185.529 323.148,185.019 325.407,185.52C325.407,185.52 326.979,185.502 328.852,188.016C328.852,188.016 330.565,190.457 330.841,191.515C330.841,191.515 333.153,197.762 333.137,198.993C333.137,198.993 333.211,198.761 333.433,200.723L334.223,205.602L335.38,213.109L337.232,222.962C337.232,222.962 338.161,227.781 338.653,228.369L343.706,239.353L351.52,252.017L357.97,261.175L366.652,272.259L372.136,280.163C372.136,280.163 373.275,284.151 373.153,285.794L373.271,299.932C373.271,299.932 373.46,301.627 370.204,309.454L360.878,334.212L355.189,348.959L349.586,370.115L343.197,393.981L334.766,430.607L328.015,461.386L324.138,481.698C324.138,481.698 322.951,488.542 310.281,500.908L301.895,510.176L289.168,521.117L274.538,530.152C274.538,530.152 269.835,532.513 268.47,531.691C268.986,532.217 262.161,530.923 257.179,525.861L252.185,519.326L245.45,506.703C243.703,503.061 242.34,498.279 241.223,492.763C241.142,492.577 240.192,488.583 240.613,484.711C241.279,478.58 246.847,462.894 248.439,460.849L250.58,456.156L257.517,440.803L263.497,431.037L269.513,422.272L281.178,407.189L290.141,397.669L302.581,375.362L313.29,356.581L321.378,341.069L330.555,324.326L337.095,308.676C337.095,308.676 336.898,305.355 336.462,303.39L331.204,287.29L326.261,273.946L314.89,246.03L308.031,229.59L306.119,224.114C306.119,224.114 305.024,222.541 305.28,219.751L305.29,213.383L305.014,199.561L305.289,188.056L306.338,174.697C306.338,174.697 306.803,171.443 307.626,169.242C308.112,167.942 308.471,167.37 309.247,166.454C309.352,166.33 309.838,165.881 310.004,165.899C310.166,165.916 310.729,166.153 310.826,166.285C312.339,168.349 313.073,180.988 313.073,180.988L313.401,198.24L314.388,206.636C314.388,206.636 314.582,207.926 316.344,212.929L320.578,223.396L325.956,232.973L330.995,242.207L326.077,230.672L323.661,224.918Z" style="fill:rgb(249,220,196);stroke:rgb(249,220,196);stroke-width:0.35px;"/>
                </g>
                <g id="arm-right" serif:id="arm right">
                    <path d="M499.922,375.999C502.101,373.071 508.666,365.704 513.761,361.313C519.972,355.962 529.949,347.683 537.187,343.89C543.3,340.687 553.713,339.292 557.191,338.557C557.604,338.47 557.9,339.088 558.06,339.479C559.369,342.683 562.699,351.688 565.045,357.783C569.137,368.411 576.96,388.016 582.608,403.249C588.285,418.561 594.903,434.877 599.109,449.651C603.045,463.479 606.596,481.121 607.842,491.891C608.7,499.313 607.987,508.36 606.585,514.27C605.438,519.106 603.956,525.296 599.431,527.352C592.609,530.452 577.033,532.032 565.656,532.871C552.341,533.852 531.055,533.531 519.536,533.239C511.841,533.045 504.129,532.42 496.543,531.122C487.869,529.638 477.053,526.335 467.497,524.334C458.111,522.368 448.708,520.405 439.206,519.112C429.343,517.769 418.644,516.826 408.32,516.277C397.657,515.709 384.842,515.847 375.228,515.707C367.031,515.587 355.788,515.532 350.635,515.435C348.524,515.395 345.191,515.292 344.309,515.123C343.9,515.044 345.038,514.701 345.343,514.417C346.459,513.379 349.079,510.696 351.002,508.894C353.398,506.651 357.223,503.217 359.718,500.954C361.797,499.069 363.846,497.15 365.972,495.318C368.663,493 372.862,489.22 375.861,487.044C378.401,485.203 381.645,483.109 383.968,482.266C385.799,481.602 387.857,481.983 389.805,481.987C395.693,481.999 409.471,482.187 419.298,482.34C429.123,482.493 440.229,483.084 448.769,482.906C456.046,482.754 463.304,482.04 470.541,481.27C477.875,480.49 486.305,479.058 492.775,478.225C498.296,477.515 503.809,476.677 509.361,476.275C515.604,475.822 525.623,475.422 530.229,475.508C532.524,475.551 535.247,476.386 536.996,476.791C538.263,477.084 540.17,478.061 540.726,477.935C541.282,477.809 540.549,476.644 540.332,476.034C538.08,469.739 530.701,449.59 527.218,440.163C524.663,433.25 521.606,425.03 519.431,419.471C517.765,415.215 515.952,411.017 514.166,406.81C512.348,402.528 510.259,397.557 508.526,393.781C507.034,390.528 505.078,386.638 503.771,384.154C502.822,382.351 501.326,380.236 500.685,378.877C500.261,377.979 499.329,376.795 499.922,375.999Z" style="fill:rgb(249,220,196);stroke:rgb(249,220,196);stroke-width:0.35px;"/>
                </g>
                <g id="eyebrows">
                    <path d="M311.224,124.788L312.124,133.522L316.735,133.614C316.735,133.614 323.267,133.922 333.991,137.789C333.991,137.789 332.651,140.132 326.795,142.427L309.357,142.688L311.224,124.788Z" style="fill:rgb(176,125,98);stroke:rgb(176,125,98);stroke-width:0.35px;"/>
                    <path d="M328.652,142.849C328.652,142.849 330.242,143.218 335.003,137.858L335.153,139.957C335.153,139.957 329.233,143.71 328.652,142.849Z" style="fill:rgb(176,125,98);stroke:rgb(176,125,98);stroke-width:0.35px;"/>
                    <path d="M364.661,137.756L366.826,137.756C366.826,137.756 365.976,138.608 369.57,144.713C369.57,144.713 366.929,143.165 364.661,137.756Z" style="fill:rgb(176,125,98);stroke:rgb(176,125,98);stroke-width:0.35px;"/>
                    <path d="M368.411,137.96L391.821,137.737C391.821,137.737 399.803,142.878 404.11,151.932C404.11,151.932 393.729,145.185 391.785,145.563L369.932,145.28L368.411,137.96Z" style="fill:rgb(176,125,98);stroke:rgb(176,125,98);stroke-width:0.35px;"/>
                </g>
                <g transform="matrix(1,0,0,1,-6.01163,0.316544)">
                    <ellipse cx="434.871" cy="210.505" rx="6.334" ry="16.655" style="fill:none;stroke:rgb(246,189,96);stroke-width:1.5px;"/>
                </g>
            </g>
        </g>
    </g>
</svg>
